<svg xmlns="http://www.w3.org/2000/svg" width="62.54" height="62.54" viewBox="0 0 62.54 62.54" fill="#d9d9d9">
  <path id="Path_25" data-name="Path 25" d="M58.286,8.254V45.778H20.762V8.254H58.286m0-6.254H20.762a6.272,6.272,0,0,0-6.254,6.254V45.778a6.272,6.272,0,0,0,6.254,6.254H58.286a6.272,6.272,0,0,0,6.254-6.254V8.254A6.272,6.272,0,0,0,58.286,2ZM31.707,32.238l5.285,7.067,7.755-9.694,10.413,13.04H23.889ZM2,14.508V58.286A6.272,6.272,0,0,0,8.254,64.54H52.032V58.286H8.254V14.508Z" transform="translate(-2 -2)"/>
</svg>
